<svg xmlns="http://www.w3.org/2000/svg" style="display: none;"><symbol id="ter-icon--enclosed-arrow-down-dark-32px" viewBox="0 0 34 34"><title>enclosed arrow down dark 32px</title><g class="nc-icon-wrapper"><g><path d="M17 0c9.389 0 17 7.611 17 17s-7.611 17-17 17S0 26.389 0 17 7.611 0 17 0zm0 2C8.716 2 2 8.716 2 17c0 8.284 6.716 15 15 15 8.284 0 15-6.716 15-15 0-8.284-6.716-15-15-15z"/><path d="M16 10a1 1 0 0 1 2 0v14a1 1 0 0 1-2 0V10z"/><path d="M22.793 16.793a1 1 0 0 1 1.414 1.414l-6.5 6.5a1 1 0 0 1-1.414 0l-6.5-6.5a1 1 0 0 1 1.414-1.414L17 22.586l5.793-5.793z"/></g></g></symbol><symbol id="ter-icon--enclosed-arrow-left-dark-16px" viewBox="0 0 18 18"><title>enclosed arrow left dark 16px</title><g class="nc-icon-wrapper"><g><path d="M18 9A9 9 0 1 1 0 9a9 9 0 1 1 18 0zm-2 0A7 7 0 1 0 2 9a7 7 0 0 0 14 0z"/><path d="M13 8a1 1 0 1 1 0 2H7a1 1 0 0 1 0-2h6z"/><path d="M9.707 11.543a1 1 0 0 1-1.414 1.414l-3.25-3.25a1 1 0 0 1 0-1.414l3.25-3.25a1 1 0 1 1 1.414 1.414L7.164 9l2.543 2.543z"/></g></g></symbol><symbol id="ter-icon--enclosed-arrow-down-dark-48px" viewBox="0 0 50 50"><title>enclosed arrow down dark 48px</title><g class="nc-icon-wrapper"><g><path d="M25 0c13.807 0 25 11.193 25 25S38.807 50 25 50 0 38.807 0 25 11.193 0 25 0zm0 2C12.297 2 2 12.297 2 25s10.297 23 23 23 23-10.297 23-23S37.703 2 25 2z"/><path d="M24 14a1 1 0 0 1 2 0v22a1 1 0 0 1-2 0V14z"/><path d="M34.293 25.293a1 1 0 0 1 1.414 1.414l-10 10a1 1 0 0 1-1.414 0l-10-10a1 1 0 0 1 1.414-1.414L25 34.586l9.293-9.293z"/></g></g></symbol><symbol id="ter-icon--refresh-dark-48px" viewBox="0 0 48 48"><title>refresh dark 48px</title><g class="nc-icon-wrapper"><g><path d="M44.781 12.002a1 1 0 1 1-1.732 1C36.975 2.48 23.523-1.123 13.002 4.95 4.223 10.02.1 20.385 2.832 29.999a1 1 0 0 1-1.924.547C-2.074 20.056 2.425 8.748 12.002 3.219 23.48-3.408 38.155.524 44.782 12.002zM3.134 35.999a1 1 0 1 1 1.732-1c6.074 10.52 19.527 14.125 30.047 8.05C43.692 37.981 47.816 27.615 45.083 18a1 1 0 1 1 1.924-.547c2.982 10.492-1.517 21.799-11.094 27.329-11.477 6.626-26.153 2.694-32.779-8.783z"/><path d="M43 11.745v-9a1 1 0 0 1 2 0v10a1 1 0 0 1-1 1H34a1 1 0 1 1 0-2h9zM5 45.5a1 1 0 1 1-2 0v-10a1 1 0 0 1 1-1h10a1 1 0 0 1 0 2H5v9z"/></g></g></symbol><symbol id="ter-icon--refresh-dark-32px" viewBox="0 0 34 34"><title>refresh dark 32px</title><g class="nc-icon-wrapper"><g><path d="M31.732 8.461a1 1 0 1 1-1.73 1.004C25.859 2.327 16.68-.12 9.503 4.003 3.516 7.442.704 14.473 2.567 20.992a1 1 0 0 1-1.923.55C-1.47 14.141 1.72 6.167 8.507 2.268c8.131-4.67 18.529-1.9 23.225 6.192zM2.268 25.54a1 1 0 0 1 1.73-1.004c4.143 7.138 13.321 9.585 20.499 5.462 5.987-3.439 8.799-10.469 6.936-16.989a1 1 0 0 1 1.923-.55c2.114 7.4-1.075 15.375-7.863 19.274-8.131 4.67-18.529 1.899-23.225-6.193z"/><path d="M29.867 3.15a1 1 0 1 1 2 0V9a1 1 0 0 1-1 1H25a1 1 0 0 1 0-2h4.867V3.15zM3.867 26v4.923a1 1 0 0 1-2 0V25a1 1 0 0 1 1-1h5.6a1 1 0 0 1 0 2h-4.6z"/></g></g></symbol><symbol id="ter-icon--refresh-dark-24px" viewBox="0 0 24 26"><title>refresh dark 24px</title><g class="nc-icon-wrapper"><g><path d="M3.816 21.596a1 1 0 1 1 1.342-1.483 9.548 9.548 0 0 0 6.43 2.475A9.588 9.588 0 0 0 21.176 13c0-.642-.16-1.703-.368-2.596a1 1 0 0 1 1.947-.455c.24 1.028.421 2.227.421 3.051 0 6.4-5.188 11.588-11.588 11.588a11.547 11.547 0 0 1-7.772-2.992zM18.632 3.798a1 1 0 1 1-1.216 1.587 9.54 9.54 0 0 0-5.828-1.973A9.588 9.588 0 0 0 2 13a9.6 9.6 0 0 0 .375 2.667 1 1 0 1 1-1.921.555A11.6 11.6 0 0 1 0 13C0 6.6 5.188 1.412 11.588 1.412c2.582 0 5.038.848 7.044 2.386z"/><path d="M18.706 1.706a1 1 0 1 1 2 0v4.588a1 1 0 0 1-1 1h-4.588a1 1 0 1 1 0-2h3.588V1.706zM4.47 24.294a1 1 0 1 1-2 0v-4.588a1 1 0 0 1 1-1h4.588a1 1 0 1 1 0 2H4.47v3.588z"/></g></g></symbol><symbol id="ter-icon--refresh-dark-16px" viewBox="0 0 17 19"><title>refresh dark 16px</title><g class="nc-icon-wrapper"><g><path d="M2.8 15.805a1 1 0 0 1 1.34-1.483A6.5 6.5 0 0 0 15 9.5c0-.428-.11-1.16-.254-1.772a1 1 0 0 1 1.948-.456C16.869 8.021 17 8.89 17 9.5a8.5 8.5 0 0 1-14.2 6.305zM13.666 2.75a1 1 0 1 1-1.217 1.588 6.5 6.5 0 0 0-10.196 6.97 1 1 0 0 1-1.921.555A8.5 8.5 0 0 1 13.667 2.75z"/><path d="M13.25 3.75V1.5a1 1 0 0 1 2 0v3.25a1 1 0 0 1-1 1H11a1 1 0 1 1 0-2h2.25zm-9.5 11.5v2.25a1 1 0 0 1-2 0v-3.25a1 1 0 0 1 1-1H6a1 1 0 0 1 0 2H3.75z"/></g></g></symbol><symbol id="ter-icon--open-x-dark-48px" viewBox="0 0 50 50"><title>open x dark 48px</title><g class="nc-icon-wrapper"><path d="M25 26.414L1.707 49.707a1 1 0 0 1-1.414-1.414L23.586 25 .293 1.707A1 1 0 1 1 1.707.293L25 23.586 48.293.293a1 1 0 0 1 1.414 1.414L26.414 25l23.293 23.293a1 1 0 1 1-1.414 1.414L25 26.414z"/></g></symbol><symbol id="ter-icon--open-x-dark-32px" viewBox="0 0 34 34"><title>open x dark 32px</title><g class="nc-icon-wrapper"><path d="M17 18.414L1.707 33.707a1 1 0 1 1-1.414-1.414L15.586 17 .293 1.707A1 1 0 1 1 1.707.293L17 15.586 32.293.293a1 1 0 0 1 1.414 1.414L18.414 17l15.293 15.293a1 1 0 0 1-1.414 1.414L17 18.414z"/></g></symbol><symbol id="ter-icon--open-x-dark-24px" viewBox="0 0 26 26"><title>open x dark 24px</title><g class="nc-icon-wrapper"><path d="M13 14.414L1.707 25.707a1 1 0 0 1-1.414-1.414L11.586 13 .293 1.707A1 1 0 0 1 1.707.293L13 11.586 24.293.293a1 1 0 0 1 1.414 1.414L14.414 13l11.293 11.293a1 1 0 1 1-1.414 1.414L13 14.414z"/></g></symbol><symbol id="ter-icon--open-x-dark-16px" viewBox="0 0 18 18"><title>open x dark 16px</title><g class="nc-icon-wrapper"><path d="M9 10.414l-7.293 7.293a1 1 0 0 1-1.414-1.414L7.586 9 .293 1.707A1 1 0 0 1 1.707.293L9 7.586 16.293.293a1 1 0 0 1 1.414 1.414L10.414 9l7.293 7.293a1 1 0 1 1-1.414 1.414L9 10.414z"/></g></symbol><symbol id="ter-icon--open-check-dark-48px" viewBox="0 0 45 33"><title>open check dark 48px</title><g class="nc-icon-wrapper"><path d="M12.379 30.6L43.299.286A1 1 0 1 1 44.7 1.714l-31.621 31a1 1 0 0 1-1.4 0L.299 21.56A1 1 0 1 1 1.7 20.131L12.38 30.6z"/></g></symbol><symbol id="ter-icon--open-check-dark-32px" viewBox="0 0 30 22"><title>open check dark 32px</title><g class="nc-icon-wrapper"><path d="M28.303.283a1 1 0 0 1 1.394 1.434l-20.59 20a1 1 0 0 1-1.394 0l-7.41-7.196a1 1 0 1 1 1.394-1.435l6.712 6.52L28.303.283z"/></g></symbol><symbol id="ter-icon--open-check-dark-24px" viewBox="0 0 24 18"><title>open check dark 24px</title><g class="nc-icon-wrapper"><path d="M6.822 15.32L22.303.283a1 1 0 0 1 1.394 1.434L7.518 17.432a1 1 0 0 1-1.393 0L.303 11.777a1 1 0 0 1 1.394-1.435l5.125 4.978z"/></g></symbol><symbol id="ter-icon--open-check-dark-16px" viewBox="0 0 16 12"><title>open check dark 16px</title><g class="nc-icon-wrapper"><path d="M4.705 9.606L14.303.283a1 1 0 0 1 1.394 1.434l-10.296 10a1 1 0 0 1-1.393 0L.303 8.12a1 1 0 0 1 1.394-1.435l3.008 2.922z"/></g></symbol><symbol id="ter-icon--open-caret-up-dark-48px" viewBox="0 0 44 24"><title>open caret up dark 48px</title><g class="nc-icon-wrapper"><path d="M22 2.914L1.707 23.207a1 1 0 0 1-1.414-1.414l21-21a1 1 0 0 1 1.414 0l21 21a1 1 0 0 1-1.414 1.414L22 2.914z"/></g></symbol><symbol id="ter-icon--open-caret-up-dark-32px" viewBox="0 0 30 16"><title>open caret up dark 32px</title><g class="nc-icon-wrapper"><path d="M15 2.414L1.707 15.707a1 1 0 0 1-1.414-1.414l14-14a1 1 0 0 1 1.414 0l14 14a1 1 0 0 1-1.414 1.414L15 2.414z"/></g></symbol><symbol id="ter-icon--open-caret-up-dark-24px" viewBox="0 0 24 14"><title>open caret up dark 24px</title><g class="nc-icon-wrapper"><path d="M12 3.164l-9.793 9.793a1 1 0 0 1-1.414-1.414l10.5-10.5a1 1 0 0 1 1.414 0l10.5 10.5a1 1 0 0 1-1.414 1.414L12 3.164z"/></g></symbol><symbol id="ter-icon--open-caret-up-dark-16px" viewBox="0 0 16 9"><title>open caret up dark 16px</title><g class="nc-icon-wrapper"><path d="M8.25 2.664L2.457 8.457a1 1 0 0 1-1.414-1.414l6.5-6.5a1 1 0 0 1 1.414 0l6.5 6.5a1 1 0 0 1-1.414 1.414L8.25 2.664z"/></g></symbol><symbol id="ter-icon--open-caret-up-dark-8px" viewBox="0 0 10 6"><title>open caret up dark 8px</title><g class="nc-icon-wrapper"><path d="M5 2.414l3.293 3.293a1 1 0 1 0 1.414-1.414l-4-4a1 1 0 0 0-1.414 0l-4 4a1 1 0 0 0 1.414 1.414L5 2.414z"/></g></symbol><symbol id="ter-icon--open-caret-right-dark-48px" viewBox="0 0 24 44"><title>open caret right dark 48px</title><g class="nc-icon-wrapper"><path d="M21.086 22L.793 1.707A1 1 0 0 1 2.207.293l21 21a1 1 0 0 1 0 1.414l-21 21a1 1 0 0 1-1.414-1.414L21.086 22z"/></g></symbol><symbol id="ter-icon--open-caret-right-dark-32px" viewBox="0 0 16 30"><title>open caret right dark 32px</title><g class="nc-icon-wrapper"><path d="M13.586 15L.293 1.707A1 1 0 0 1 1.707.293l14 14a1 1 0 0 1 0 1.414l-14 14a1 1 0 0 1-1.414-1.414L13.586 15z"/></g></symbol><symbol id="ter-icon--open-caret-right-dark-24px" viewBox="0 0 14 24"><title>open caret right dark 24px</title><g class="nc-icon-wrapper"><path d="M1.043 2.207A1 1 0 0 1 2.457.793l10.5 10.5a1 1 0 0 1 0 1.414l-10.5 10.5a1 1 0 0 1-1.414-1.414L10.836 12 1.043 2.207z"/></g></symbol><symbol id="ter-icon--open-caret-right-dark-16px" viewBox="0 0 9 15"><title>open caret right dark 16px</title><g class="nc-icon-wrapper"><path d="M6.086 7.5L.293 1.707A1 1 0 0 1 1.707.293l6.5 6.5a1 1 0 0 1 0 1.414l-6.5 6.5a1 1 0 1 1-1.414-1.414L6.086 7.5z"/></g></symbol><symbol id="ter-icon--open-caret-right-dark-8px" viewBox="0 0 6 10"><title>open caret right dark 8px</title><g class="nc-icon-wrapper"><path d="M.293 8.293a1 1 0 0 0 1.414 1.414l4-4a1 1 0 0 0 0-1.414l-4-4A1 1 0 0 0 .293 1.707L3.586 5 .293 8.293z"/></g></symbol><symbol id="ter-icon--open-caret-left-dark-48px" viewBox="0 0 24 44"><title>open caret left dark 48px</title><g class="nc-icon-wrapper"><path d="M2.914 22l20.293 20.293a1 1 0 0 1-1.414 1.414l-21-21a1 1 0 0 1 0-1.414l21-21a1 1 0 0 1 1.414 1.414L2.914 22z"/></g></symbol><symbol id="ter-icon--open-caret-left-dark-32px" viewBox="0 0 16 30"><title>open caret left dark 32px</title><g class="nc-icon-wrapper"><path d="M2.414 15l13.293 13.293a1 1 0 0 1-1.414 1.414l-14-14a1 1 0 0 1 0-1.414l14-14a1 1 0 0 1 1.414 1.414L2.414 15z"/></g></symbol><symbol id="ter-icon--open-caret-left-dark-24px" viewBox="0 0 14 24"><title>open caret left dark 24px</title><g class="nc-icon-wrapper"><path d="M12.957 21.793a1 1 0 0 1-1.414 1.414l-10.5-10.5a1 1 0 0 1 0-1.414l10.5-10.5a1 1 0 0 1 1.414 1.414L3.164 12l9.793 9.793z"/></g></symbol><symbol id="ter-icon--open-caret-left-dark-16px" viewBox="0 0 9 15"><title>open caret left dark 16px</title><g class="nc-icon-wrapper"><path d="M2.414 7.5l5.793 5.793a1 1 0 0 1-1.414 1.414l-6.5-6.5a1 1 0 0 1 0-1.414l6.5-6.5a1 1 0 1 1 1.414 1.414L2.414 7.5z"/></g></symbol><symbol id="ter-icon--open-caret-left-dark-8px" viewBox="0 0 6 10"><title>open caret left dark 8px</title><g class="nc-icon-wrapper"><path d="M5.707 1.707A1 1 0 0 0 4.293.293l-4 4a1 1 0 0 0 0 1.414l4 4a1 1 0 0 0 1.414-1.414L2.414 5l3.293-3.293z"/></g></symbol><symbol id="ter-icon--open-caret-down-dark-48px" viewBox="0 0 44 24"><title>open caret down dark 48px</title><g class="nc-icon-wrapper"><path d="M22 21.086L42.293.793a1 1 0 0 1 1.414 1.414l-21 21a1 1 0 0 1-1.414 0l-21-21A1 1 0 0 1 1.707.793L22 21.086z"/></g></symbol><symbol id="ter-icon--open-caret-down-dark-32px" viewBox="0 0 30 16"><title>open caret down dark 32px</title><g class="nc-icon-wrapper"><path d="M15 13.586L28.293.293a1 1 0 0 1 1.414 1.414l-14 14a1 1 0 0 1-1.414 0l-14-14A1 1 0 0 1 1.707.293L15 13.586z"/></g></symbol><symbol id="ter-icon--open-caret-down-dark-24px" viewBox="0 0 24 14"><title>open caret down dark 24px</title><g class="nc-icon-wrapper"><path d="M12.25 10.836l9.793-9.793a1 1 0 0 1 1.414 1.414l-10.5 10.5a1 1 0 0 1-1.414 0l-10.5-10.5a1 1 0 0 1 1.414-1.414l9.793 9.793z"/></g></symbol><symbol id="ter-icon--open-caret-down-dark-16px" viewBox="0 0 16 9"><title>open caret down dark 16px</title><g class="nc-icon-wrapper"><path d="M8.25 6.336L14.043.543a1 1 0 0 1 1.414 1.414l-6.5 6.5a1 1 0 0 1-1.414 0l-6.5-6.5A1 1 0 0 1 2.457.543L8.25 6.336z"/></g></symbol><symbol id="ter-icon--open-caret-down-dark-8px" viewBox="0 0 10 6"><title>open caret down dark 8px</title><g class="nc-icon-wrapper"><path d="M5 3.586L1.707.293A1 1 0 1 0 .293 1.707l4 4a1 1 0 0 0 1.414 0l4-4A1 1 0 0 0 8.293.293L5 3.586z"/></g></symbol><symbol id="ter-icon--open-arrow-up-dark-48px" viewBox="0 0 45 48"><title>open arrow up dark 48px</title><g class="nc-icon-wrapper"><g><path d="M23.5 46.5a1 1 0 0 1-2 0v-45a1 1 0 0 1 2 0v45z"/><path d="M22.5 2.914L2.207 23.207a1 1 0 0 1-1.414-1.414l21-21a1 1 0 0 1 1.414 0l21 21a1 1 0 0 1-1.414 1.414L22.5 2.914z"/></g></g></symbol><symbol id="ter-icon--open-arrow-up-dark-32px" viewBox="0 0 30 32"><title>open arrow up dark 32px</title><g class="nc-icon-wrapper"><g><path d="M16 31a1 1 0 0 1-2 0V1a1 1 0 0 1 2 0v30z"/><path d="M15 2.414L1.707 15.707a1 1 0 0 1-1.414-1.414l14-14a1 1 0 0 1 1.414 0l14 14a1 1 0 0 1-1.414 1.414L15 2.414z"/></g></g></symbol><symbol id="ter-icon--open-arrow-up-dark-24px" viewBox="0 0 24 26"><title>open arrow up dark 24px</title><g class="nc-icon-wrapper"><g><path d="M13 25a1 1 0 1 1-2 0V1.122a1 1 0 0 1 2 0V25z"/><path d="M12 2.546L1.712 12.968a1 1 0 0 1-1.424-1.405l11-11.143a1 1 0 0 1 1.424 0l11 11.143a1 1 0 0 1-1.424 1.405L12 2.546z"/></g></g></symbol><symbol id="ter-icon--open-arrow-up-dark-16px" viewBox="0 0 16 16"><title>open arrow up dark 16px</title><g class="nc-icon-wrapper"><g fill="none" fill-rule="evenodd"><path stroke="#005F9E" stroke-linecap="round" stroke-linejoin="round" stroke-width="2" d="M8 15V1.072M1.5 7.571l6.5-6.5 6.5 6.5"/><path fill-rule="nonzero" d="M9 15a1 1 0 1 1-2 0V1.072a1 1 0 0 1 2 0V15z"/><path fill-rule="nonzero" d="M8 2.485L2.207 8.278A1 1 0 0 1 .792 6.864l6.5-6.5a1 1 0 0 1 1.415 0l6.5 6.5a1 1 0 0 1-1.415 1.414L8 2.485z"/></g></g></symbol><symbol id="ter-icon--open-arrow-right-dark-48px" viewBox="0 0 47 44"><title>open arrow right dark 48px</title><g class="nc-icon-wrapper"><g><path d="M1 23a1 1 0 0 1 0-2h45a1 1 0 0 1 0 2H1z"/><path d="M44.586 22L24.293 1.707A1 1 0 0 1 25.707.293l21 21a1 1 0 0 1 0 1.414l-21 21a1 1 0 0 1-1.414-1.414L44.586 22z"/></g></g></symbol><symbol id="ter-icon--open-arrow-right-dark-32px" viewBox="0 0 32 30"><title>open arrow right dark 32px</title><g class="nc-icon-wrapper"><g><path d="M1 16a1 1 0 0 1 0-2h30a1 1 0 0 1 0 2H1z"/><path d="M16.293 1.707A1 1 0 0 1 17.707.293l14 14a1 1 0 0 1 0 1.414l-14 14a1 1 0 0 1-1.414-1.414L29.586 15 16.293 1.707z"/></g></g></symbol><symbol id="ter-icon--open-arrow-right-dark-24px" viewBox="0 0 26 24"><title>open arrow right dark 24px</title><g class="nc-icon-wrapper"><g><path d="M1 13a1 1 0 1 1 0-2h23.878a1 1 0 0 1 0 2H1z"/><path d="M13.032 1.712A1 1 0 1 1 14.437.288l11.143 11a1 1 0 0 1 0 1.424l-11.143 11a1 1 0 0 1-1.405-1.424L23.454 12 13.032 1.712z"/></g></g></symbol><symbol id="ter-icon--open-arrow-right-dark-16px" viewBox="0 0 16 16"><title>open arrow right dark 16px</title><g class="nc-icon-wrapper"><g><path d="M1 9a1 1 0 1 1 0-2h13.928a1 1 0 1 1 0 2H.999z"/><path d="M13.515 8L7.722 2.207A1 1 0 0 1 9.137.793l6.5 6.5a1 1 0 0 1 0 1.414l-6.5 6.5a1 1 0 0 1-1.415-1.414L13.515 8z"/></g></g></symbol><symbol id="ter-icon--open-arrow-left-dark-48px" viewBox="0 0 47 44"><title>open arrow left dark 48px</title><g class="nc-icon-wrapper"><g><path d="M46 21a1 1 0 0 1 0 2H1a1 1 0 0 1 0-2h45z"/><path d="M2.414 22l20.293 20.293a1 1 0 0 1-1.414 1.414l-21-21a1 1 0 0 1 0-1.414l21-21a1 1 0 0 1 1.414 1.414L2.414 22z"/></g></g></symbol><symbol id="ter-icon--open-arrow-left-dark-32px" viewBox="0 0 32 30"><title>open arrow left dark 32px</title><g class="nc-icon-wrapper"><g><path d="M31 14a1 1 0 0 1 0 2H1a1 1 0 0 1 0-2h30z"/><path d="M2.414 15l13.293 13.293a1 1 0 0 1-1.414 1.414l-14-14a1 1 0 0 1 0-1.414l14-14a1 1 0 0 1 1.414 1.414L2.414 15z"/></g></g></symbol><symbol id="ter-icon--open-arrow-left-dark-24px" viewBox="0 0 26 24"><title>open arrow left dark 24px</title><g class="nc-icon-wrapper"><g><path d="M25 11a1 1 0 0 1 0 2H1.122a1 1 0 0 1 0-2H25z"/><path d="M2.546 12l10.422 10.288a1 1 0 1 1-1.405 1.424l-11.143-11a1 1 0 0 1 0-1.424l11.143-11a1 1 0 0 1 1.405 1.424L2.546 12z"/></g></g></symbol><symbol id="ter-icon--open-arrow-left-dark-16px" viewBox="0 0 16 15"><title>open arrow left dark 16px</title><g class="nc-icon-wrapper"><g><path d="M15 6.5a1 1 0 0 1 0 2H1.071a1 1 0 0 1 0-2H15z"/><path d="M2.486 7.5l5.793 5.793a1 1 0 0 1-1.415 1.414l-6.5-6.5a1 1 0 0 1 0-1.414l6.5-6.5A1 1 0 0 1 8.28 1.707L2.486 7.5z"/></g></g></symbol><symbol id="ter-icon--open-arrow-down-dark-48px" viewBox="0 0 45 48"><title>open arrow down dark 48px</title><g class="nc-icon-wrapper"><g><path d="M21.5 1.5a1 1 0 0 1 2 0v45a1 1 0 0 1-2 0v-45z"/><path d="M42.793 24.793a1 1 0 0 1 1.414 1.414l-21 21a1 1 0 0 1-1.414 0l-21-21a1 1 0 0 1 1.414-1.414L22.5 45.086l20.293-20.293z"/></g></g></symbol><symbol id="ter-icon--open-arrow-down-dark-32px" viewBox="0 0 30 32"><title>open arrow down dark 32px</title><g class="nc-icon-wrapper"><g><path d="M14 1a1 1 0 0 1 2 0v30a1 1 0 0 1-2 0V1z"/><path d="M15 29.586l13.293-13.293a1 1 0 0 1 1.414 1.414l-14 14a1 1 0 0 1-1.414 0l-14-14a1 1 0 0 1 1.414-1.414L15 29.586z"/></g></g></symbol><symbol id="ter-icon--open-arrow-down-dark-24px" viewBox="0 0 24 27"><title>open arrow down dark 24px</title><g class="nc-icon-wrapper"><g><path d="M11 1.5a1 1 0 0 1 2 0v24a1 1 0 0 1-2 0v-24z"/><path d="M22.293 13.793a1 1 0 0 1 1.414 1.414l-11 11a1 1 0 0 1-1.414 0l-11-11a1 1 0 0 1 1.414-1.414L12 24.086l10.293-10.293z"/></g></g></symbol><symbol id="ter-icon--open-arrow-down-dark-16px" viewBox="0 0 16 17"><title>open arrow down dark 16px</title><g class="nc-icon-wrapper"><g><path d="M7 1.5a1 1 0 1 1 2 0v13.928a1 1 0 0 1-2 0V1.5z"/><path d="M13.792 8.222a1 1 0 0 1 1.415 1.414l-6.5 6.5a1 1 0 0 1-1.415 0l-6.5-6.5a1 1 0 0 1 1.415-1.414L8 14.015l5.792-5.793z"/></g></g></symbol><symbol id="ter-icon--info-dark-48px" viewBox="0 0 50 50"><title>info dark 48px</title><g class="nc-icon-wrapper"><g fill-rule="evenodd"><path fill-rule="nonzero" d="M0 25C0 11.193 11.193 0 25 0s25 11.193 25 25-11.193 25-25 25S0 38.807 0 25zm2 0c0 12.703 10.297 23 23 23s23-10.297 23-23S37.703 2 25 2 2 12.297 2 25z"/><path d="M26 17a2 2 0 1 1-4.001-.001A2 2 0 0 1 26 17"/><path fill-rule="nonzero" d="M24 33v-9h-2a1 1 0 0 1 0-2h3a1 1 0 0 1 1 1v10h3a1 1 0 0 1 0 2h-8a1 1 0 0 1 0-2h3z"/></g></g></symbol><symbol id="ter-icon--info-dark-32px" viewBox="0 0 34 34"><title>info dark 32px</title><g class="nc-icon-wrapper"><g fill-rule="evenodd"><path fill-rule="nonzero" d="M0 17C0 7.611 7.611 0 17 0s17 7.611 17 17-7.611 17-17 17S0 26.389 0 17zm2 0c0 8.284 6.716 15 15 15 8.284 0 15-6.716 15-15 0-8.284-6.716-15-15-15C8.716 2 2 8.716 2 17z"/><path fill-rule="nonzero" d="M16.167 15.167v7.5h2v-7.5z"/><path fill-rule="nonzero" d="M14.5 23.667a1 1 0 0 1 0-2h5.333a1 1 0 1 1 0 2H14.5zm.667-7.5a1 1 0 1 1 0-2h2a1 1 0 1 1 0 2h-2z"/><path d="M18.25 11.167a1.5 1.5 0 1 1-3.001-.001 1.5 1.5 0 0 1 3.001 0"/></g></g></symbol><symbol id="ter-icon--info-dark-24px" viewBox="0 0 26 26"><title>info dark 24px</title><g class="nc-icon-wrapper"><g fill-rule="evenodd"><path fill-rule="nonzero" d="M0 13C0 5.82 5.82 0 13 0s13 5.82 13 13-5.82 13-13 13S0 20.18 0 13zm2 0c0 6.075 4.925 11 11 11s11-4.925 11-11S19.075 2 13 2 2 6.925 2 13z"/><path fill-rule="nonzero" d="M12.063 12.25v6h2v-6z"/><path d="M12.625 9.75a1.376 1.376 0 1 1 .001-2.751 1.376 1.376 0 0 1-.001 2.751z"/><path fill-rule="nonzero" d="M10.75 19.25a1 1 0 0 1 0-2h4.5a1 1 0 0 1 0 2h-4.5zm.75-6a1 1 0 0 1 0-2H13a1 1 0 0 1 0 2h-1.5z"/></g></g></symbol><symbol id="ter-icon--info-dark-16px" viewBox="0 0 18 18"><title>info dark 16px</title><g class="nc-icon-wrapper"><g fill-rule="evenodd"><path fill-rule="nonzero" d="M0 9a9 9 0 1 1 18 0A9 9 0 1 1 0 9zm2 0a7 7 0 1 0 14 0A7 7 0 0 0 2 9z"/><path fill-rule="nonzero" d="M8.042 8.5v4h2v-4z"/><path d="M8.75 6.5a1.25 1.25 0 1 1 0-2.5 1.25 1.25 0 0 1 0 2.5z"/><path fill-rule="nonzero" d="M7.5 13.5a1 1 0 0 1 0-2h3a1 1 0 0 1 0 2h-3zm.5-4a1 1 0 1 1 0-2h1a1 1 0 1 1 0 2H8z"/></g></g></symbol><symbol id="ter-icon--enclosed-x-dark-48px" viewBox="0 0 50 50"><title>enclosed x dark 48px</title><g class="nc-icon-wrapper"><g><path d="M50 25c0 13.807-11.193 25-25 25S0 38.807 0 25 11.193 0 25 0s25 11.193 25 25zm-2 0C48 12.297 37.703 2 25 2S2 12.297 2 25s10.297 23 23 23 23-10.297 23-23z"/><path d="M16.293 17.707a1 1 0 0 1 1.414-1.414l16 16a1 1 0 0 1-1.414 1.414l-16-16z"/><path d="M17.707 33.707a1 1 0 0 1-1.414-1.414l16-16a1 1 0 0 1 1.414 1.414l-16 16z"/></g></g></symbol><symbol id="ter-icon--enclosed-x-dark-32px" viewBox="0 0 34 34"><title>enclosed x dark 32px</title><g class="nc-icon-wrapper"><g><path d="M34 17c0 9.389-7.611 17-17 17S0 26.389 0 17 7.611 0 17 0s17 7.611 17 17zm-2 0c0-8.284-6.716-15-15-15C8.716 2 2 8.716 2 17c0 8.284 6.716 15 15 15 8.284 0 15-6.716 15-15z"/><path d="M10.793 12.207a1 1 0 0 1 1.414-1.414l11 11a1 1 0 1 1-1.414 1.414l-11-11z"/><path d="M12.207 23.207a1 1 0 0 1-1.414-1.414l11-11a1 1 0 0 1 1.414 1.414l-11 11z"/></g></g></symbol><symbol id="ter-icon--enclosed-x-dark-24px" viewBox="0 0 26 26"><title>enclosed x dark 24px</title><g class="nc-icon-wrapper"><g><path d="M26 13c0 7.18-5.82 13-13 13S0 20.18 0 13 5.82 0 13 0s13 5.82 13 13zm-2 0c0-6.075-4.925-11-11-11S2 6.925 2 13s4.925 11 11 11 11-4.925 11-11z"/><path d="M8.543 9.957a1 1 0 0 1 1.414-1.414l7.5 7.5a1 1 0 0 1-1.414 1.414l-7.5-7.5z"/><path d="M9.957 17.457a1 1 0 1 1-1.414-1.414l7.5-7.5a1 1 0 0 1 1.414 1.414l-7.5 7.5z"/></g></g></symbol><symbol id="ter-icon--enclosed-x-dark-16px" viewBox="0 0 18 18"><title>enclosed x dark 16px</title><g class="nc-icon-wrapper"><g><path d="M18 9A9 9 0 1 1 0 9a9 9 0 1 1 18 0zm-2 0A7 7 0 1 0 2 9a7 7 0 0 0 14 0z"/><path d="M5.793 7.207a1 1 0 0 1 1.414-1.414l5 5a1 1 0 1 1-1.414 1.414l-5-5z"/><path d="M7.207 12.207a1 1 0 1 1-1.414-1.414l5-5a1 1 0 0 1 1.414 1.414l-5 5z"/></g></g></symbol><symbol id="ter-icon--enclosed-check-dark-48px" viewBox="0 0 50 50"><title>enclosed check dark 48px</title><g class="nc-icon-wrapper"><g><path d="M50 25c0 13.807-11.193 25-25 25S0 38.807 0 25 11.193 0 25 0s25 11.193 25 25zm-2 0C48 12.297 37.703 2 25 2S2 12.297 2 25s10.297 23 23 23 23-10.297 23-23z"/><path d="M36.293 17.293a1 1 0 0 1 1.414 1.414l-16 16a1 1 0 0 1-1.414 0l-6-6a1 1 0 0 1 1.414-1.414L21 32.586l15.293-15.293z"/></g></g></symbol><symbol id="ter-icon--enclosed-check-dark-32px" viewBox="0 0 34 34"><title>enclosed check dark 32px</title><g class="nc-icon-wrapper"><g><path d="M34 17c0 9.389-7.611 17-17 17S0 26.39 0 17 7.611 0 17 0s17 7.611 17 17zm-2 0c0-8.284-6.716-15-15-15C8.716 2 2 8.716 2 17c0 8.284 6.716 15 15 15 8.284 0 15-6.716 15-15z"/><path d="M14.333 21.586l9.96-9.96a1 1 0 0 1 1.414 1.415L15.04 23.707a1 1 0 0 1-1.414 0l-4-4a1 1 0 1 1 1.414-1.414l3.293 3.293z"/></g></g></symbol><symbol id="ter-icon--enclosed-check-dark-24px" viewBox="0 0 26 26"><title>enclosed check dark 24px</title><g class="nc-icon-wrapper"><g><path d="M26 13c0 7.18-5.82 13-13 13S0 20.18 0 13 5.82 0 13 0s13 5.82 13 13zm-2 0c0-6.075-4.925-11-11-11S2 6.925 2 13s4.925 11 11 11 11-4.925 11-11z"/><path d="M11 16.086l7.293-7.293a1 1 0 0 1 1.414 1.414l-8 8a1 1 0 0 1-1.414 0l-3-3a1 1 0 0 1 1.414-1.414L11 16.086z"/></g></g></symbol><symbol id="ter-icon--enclosed-check-dark-16px" viewBox="0 0 18 18"><title>enclosed check dark 16px</title><g class="nc-icon-wrapper"><g><path d="M18 9A9 9 0 1 1 0 9a9 9 0 1 1 18 0zm-2 0A7 7 0 1 0 2 9a7 7 0 0 0 14 0z"/><path d="M11.293 6.793a1 1 0 0 1 1.414 1.414l-4 4a1 1 0 0 1-1.414 0l-2-2a1 1 0 0 1 1.414-1.414L8 10.086l3.293-3.293z"/></g></g></symbol><symbol id="ter-icon--enclosed-caret-up-dark-48px" viewBox="0 0 50 50"><title>enclosed caret up dark 48px</title><g class="nc-icon-wrapper"><g><path d="M25 50C11.193 50 0 38.807 0 25S11.193 0 25 0s25 11.193 25 25-11.193 25-25 25zm0-2c12.703 0 23-10.297 23-23S37.703 2 25 2C12.298 2 2 12.297 2 25c0 12.702 10.298 23 23 23z"/><path d="M15.707 29.707a1 1 0 0 1-1.414-1.414l10-10a1 1 0 0 1 1.414 0l10 10a1 1 0 0 1-1.414 1.414L25 20.414l-9.293 9.293z"/></g></g></symbol><symbol id="ter-icon--enclosed-caret-up-dark-32px" viewBox="0 0 34 34"><title>enclosed caret up dark 32px</title><g class="nc-icon-wrapper"><g><path d="M17 34C7.611 34 0 26.389 0 17S7.611 0 17 0s17 7.611 17 17-7.611 17-17 17zm0-2c8.284 0 15-6.716 15-15 0-8.284-6.716-15-15-15C8.716 2 2 8.716 2 17c0 8.284 6.716 15 15 15z"/><path d="M10.707 20.207a1 1 0 0 1-1.414-1.414l7-7a1 1 0 0 1 1.414 0l7 7a1 1 0 0 1-1.414 1.414L17 13.914l-6.293 6.293z"/></g></g></symbol><symbol id="ter-icon--enclosed-caret-up-dark-24px" viewBox="0 0 26 26"><title>enclosed caret up dark 24px</title><g class="nc-icon-wrapper"><g><path d="M13 26C5.82 26 0 20.18 0 13S5.82 0 13 0s13 5.82 13 13-5.82 13-13 13zm0-2c6.075 0 11-4.925 11-11S19.075 2 13 2 2 6.925 2 13s4.925 11 11 11z"/><path d="M8.457 15.582a1 1 0 0 1-1.414-1.414l5.25-5.25a1 1 0 0 1 1.414 0l5.25 5.25a1 1 0 0 1-1.414 1.414L13 11.04l-4.543 4.543z"/></g></g></symbol><symbol id="ter-icon--enclosed-caret-up-dark-16px" viewBox="0 0 18 18"><title>enclosed caret up dark 16px</title><g class="nc-icon-wrapper"><g><path d="M9 18A9 9 0 1 1 9 0a9 9 0 0 1 0 18zm0-2A7 7 0 1 0 9 2a7 7 0 0 0 0 14z"/><path d="M9 8.164l-2.793 2.793a1 1 0 0 1-1.414-1.414l3.5-3.5a1 1 0 0 1 1.414 0l3.5 3.5a1 1 0 0 1-1.414 1.414L9 8.164z"/></g></g></symbol><symbol id="ter-icon--enclosed-caret-right-dark-48px" viewBox="0 0 50 50"><title>enclosed caret right dark 48px</title><g class="nc-icon-wrapper"><g><path d="M0 25C0 11.194 11.193 0 25 0s25 11.194 25 25c0 13.807-11.193 25-25 25S0 38.807 0 25zm2 0c0 12.703 10.297 23 23 23s23-10.297 23-23C48 12.298 37.702 2 25 2S2 12.298 2 25z"/><path d="M20.293 15.707a1 1 0 0 1 1.414-1.414l10 10a1 1 0 0 1 0 1.414l-10 10a1 1 0 0 1-1.414-1.414L29.586 25l-9.293-9.293z"/></g></g></symbol><symbol id="ter-icon--enclosed-caret-right-dark-32px" viewBox="0 0 34 34"><title>enclosed caret right dark 32px</title><g class="nc-icon-wrapper"><g><path d="M0 17C0 7.611 7.611 0 17 0s17 7.611 17 17-7.611 17-17 17S0 26.389 0 17zm2 0c0 8.284 6.716 15 15 15 8.284 0 15-6.716 15-15 0-8.284-6.716-15-15-15C8.716 2 2 8.716 2 17z"/><path d="M13.793 10.707a1 1 0 0 1 1.414-1.414l7 7a1 1 0 0 1 0 1.414l-7 7a1 1 0 0 1-1.414-1.414L20.086 17l-6.293-6.293z"/></g></g></symbol><symbol id="ter-icon--enclosed-caret-right-dark-24px" viewBox="0 0 26 26"><title>enclosed caret right dark 24px</title><g class="nc-icon-wrapper"><g><path d="M0 13C0 5.82 5.82 0 13 0s13 5.82 13 13-5.82 13-13 13S0 20.18 0 13zm2 0c0 6.075 4.925 11 11 11s11-4.925 11-11S19.075 2 13 2 2 6.925 2 13z"/><path d="M10.418 8.457a1 1 0 0 1 1.414-1.414l5.25 5.25a1 1 0 0 1 0 1.414l-5.25 5.25a1 1 0 0 1-1.414-1.414L14.96 13l-4.543-4.543z"/></g></g></symbol><symbol id="ter-icon--enclosed-caret-right-dark-16px" viewBox="0 0 18 18"><title>enclosed caret right dark 16px</title><g class="nc-icon-wrapper"><g><path d="M0 9a9 9 0 1 1 18 0A9 9 0 0 1 0 9zm2 0a7 7 0 1 0 14 0A7 7 0 0 0 2 9z"/><path d="M7.043 6.207a1 1 0 0 1 1.414-1.414l3.5 3.5a1 1 0 0 1 0 1.414l-3.5 3.5a1 1 0 0 1-1.414-1.414L9.836 9 7.043 6.207z"/></g></g></symbol><symbol id="ter-icon--enclosed-caret-left-dark-48px" viewBox="0 0 50 50"><title>enclosed caret left dark 48px</title><g class="nc-icon-wrapper"><g><path d="M50 25c0 13.807-11.193 25-25 25S0 38.807 0 25 11.193 0 25 0s25 11.193 25 25zm-2 0C48 12.297 37.703 2 25 2S2 12.297 2 25c0 12.702 10.298 23 23 23s23-10.298 23-23z"/><path d="M29.707 34.293a1 1 0 0 1-1.414 1.414l-10-10a1 1 0 0 1 0-1.414l10-10a1 1 0 0 1 1.414 1.414L20.414 25l9.293 9.293z"/></g></g></symbol><symbol id="ter-icon--enclosed-caret-left-dark-32px" viewBox="0 0 34 34"><title>enclosed caret left dark 32px</title><g class="nc-icon-wrapper"><g><path d="M34 17c0 9.389-7.611 17-17 17S0 26.389 0 17 7.611 0 17 0s17 7.611 17 17zm-2 0c0-8.284-6.716-15-15-15C8.716 2 2 8.716 2 17c0 8.284 6.716 15 15 15 8.284 0 15-6.716 15-15z"/><path d="M20.207 23.293a1 1 0 0 1-1.414 1.414l-7-7a1 1 0 0 1 0-1.414l7-7a1 1 0 0 1 1.414 1.414L13.914 17l6.293 6.293z"/></g></g></symbol><symbol id="ter-icon--enclosed-caret-left-dark-24px" viewBox="0 0 26 26"><title>enclosed caret left dark 24px</title><g class="nc-icon-wrapper"><g><path d="M26 13c0 7.18-5.82 13-13 13S0 20.18 0 13 5.82 0 13 0s13 5.82 13 13zm-2 0c0-6.075-4.925-11-11-11S2 6.925 2 13s4.925 11 11 11 11-4.925 11-11z"/><path d="M11.04 13l4.542 4.543a1 1 0 0 1-1.414 1.414l-5.25-5.25a1 1 0 0 1 0-1.414l5.25-5.25a1 1 0 0 1 1.414 1.414L11.04 13z"/></g></g></symbol><symbol id="ter-icon--enclosed-caret-left-dark-16px" viewBox="0 0 18 18"><title>enclosed caret left dark 16px</title><g class="nc-icon-wrapper"><g><path d="M18 9A9 9 0 1 1 0 9a9 9 0 0 1 18 0zm-2 0A7 7 0 1 0 2 9a7 7 0 0 0 14 0z"/><path d="M10.957 11.793a1 1 0 1 1-1.414 1.414l-3.5-3.5a1 1 0 0 1 0-1.414l3.5-3.5a1 1 0 0 1 1.414 1.414L8.164 9l2.793 2.793z"/></g></g></symbol><symbol id="ter-icon--enclosed-caret-down-dark-48px" viewBox="0 0 50 50"><title>enclosed caret down dark 48px</title><g class="nc-icon-wrapper"><g><path d="M25 0c13.807 0 25 11.193 25 25S38.807 50 25 50 0 38.807 0 25 11.193 0 25 0zm0 2C12.297 2 2 12.297 2 25s10.297 23 23 23c12.702 0 23-10.298 23-23C48 12.297 37.702 2 25 2z"/><path d="M34.293 20.293a1 1 0 0 1 1.414 1.414l-10 10a1 1 0 0 1-1.414 0l-10-10a1 1 0 0 1 1.414-1.414L25 29.586l9.293-9.293z"/></g></g></symbol><symbol id="ter-icon--enclosed-caret-down-dark-32px" viewBox="0 0 34 34"><title>enclosed caret down dark 32px</title><g class="nc-icon-wrapper"><g><path d="M17 0c9.389 0 17 7.611 17 17s-7.611 17-17 17S0 26.389 0 17 7.611 0 17 0zm0 2C8.716 2 2 8.716 2 17c0 8.284 6.716 15 15 15 8.284 0 15-6.716 15-15 0-8.284-6.716-15-15-15z"/><path d="M17 20.086l6.293-6.293a1 1 0 0 1 1.414 1.414l-7 7a1 1 0 0 1-1.414 0l-7-7a1 1 0 0 1 1.414-1.414L17 20.086z"/></g></g></symbol><symbol id="ter-icon--enclosed-caret-down-dark-24px" viewBox="0 0 26 26"><title>enclosed caret down dark 24px</title><g class="nc-icon-wrapper"><g><path d="M13 0c7.18 0 13 5.82 13 13s-5.82 13-13 13S0 20.18 0 13 5.82 0 13 0zm0 2C6.925 2 2 6.925 2 13s4.925 11 11 11 11-4.925 11-11S19.075 2 13 2z"/><path d="M17.543 10.418a1 1 0 0 1 1.414 1.414l-5.25 5.25a1 1 0 0 1-1.414 0l-5.25-5.25a1 1 0 0 1 1.414-1.414L13 14.96l4.543-4.543z"/></g></g></symbol><symbol id="ter-icon--enclosed-caret-down-dark-16px" viewBox="0 0 18 18"><title>enclosed caret down dark 16px</title><g class="nc-icon-wrapper"><g><path d="M9 0a9 9 0 1 1 0 18A9 9 0 0 1 9 0zm0 2a7 7 0 1 0 0 14A7 7 0 0 0 9 2z"/><path d="M11.793 7.043a1 1 0 0 1 1.414 1.414l-3.5 3.5a1 1 0 0 1-1.414 0l-3.5-3.5a1 1 0 0 1 1.414-1.414L9 9.836l2.793-2.793z"/></g></g></symbol><symbol id="ter-icon--enclosed-arrow-up-dark-48px" viewBox="0 0 50 50"><title>enclosed arrow up dark 48px</title><g class="nc-icon-wrapper"><g><path d="M25 50C11.193 50 0 38.807 0 25S11.193 0 25 0s25 11.193 25 25-11.193 25-25 25zm0-2c12.703 0 23-10.297 23-23S37.703 2 25 2 2 12.297 2 25s10.297 23 23 23z"/><path d="M26 36a1 1 0 0 1-2 0V14a1 1 0 0 1 2 0v22z"/><path d="M15.707 24.707a1 1 0 1 1-1.414-1.414l10-10a1 1 0 0 1 1.414 0l10 10a1 1 0 0 1-1.414 1.414L25 15.414l-9.293 9.293z"/></g></g></symbol><symbol id="ter-icon--enclosed-arrow-up-dark-32px" viewBox="0 0 34 34"><title>enclosed arrow up dark 32px</title><g class="nc-icon-wrapper"><g><path d="M17 34C7.611 34 0 26.389 0 17S7.611 0 17 0s17 7.611 17 17-7.611 17-17 17zm0-2c8.284 0 15-6.716 15-15 0-8.284-6.716-15-15-15C8.716 2 2 8.716 2 17c0 8.284 6.716 15 15 15z"/><path d="M18 24a1 1 0 0 1-2 0V10a1 1 0 0 1 2 0v14z"/><path d="M17 11.414l-5.793 5.793a1 1 0 1 1-1.414-1.414l6.5-6.5a1 1 0 0 1 1.414 0l6.5 6.5a1 1 0 0 1-1.414 1.414L17 11.414z"/></g></g></symbol><symbol id="ter-icon--enclosed-arrow-up-dark-24px" viewBox="0 0 26 26"><title>enclosed arrow up dark 24px</title><g class="nc-icon-wrapper"><g><path d="M13 26C5.82 26 0 20.18 0 13S5.82 0 13 0s13 5.82 13 13-5.82 13-13 13zm0-2c6.075 0 11-4.925 11-11S19.075 2 13 2 2 6.925 2 13s4.925 11 11 11z"/><path d="M14 19a1 1 0 0 1-2 0v-9a1 1 0 0 1 2 0v9z"/><path d="M13 9.54l-4.168 4.168a1 1 0 1 1-1.415-1.415l4.875-4.875a1 1 0 0 1 1.415 0l4.875 4.875a1 1 0 1 1-1.415 1.415L13 9.54z"/></g></g></symbol><symbol id="ter-icon--enclosed-arrow-up-dark-16px" viewBox="0 0 18 18"><title>enclosed arrow up dark 16px</title><g class="nc-icon-wrapper"><g><path d="M9 18A9 9 0 1 1 9 0a9 9 0 1 1 0 18zm0-2A7 7 0 1 0 9 2a7 7 0 0 0 0 14z"/><path d="M10 13a1 1 0 1 1-2 0V7a1 1 0 0 1 2 0v6z"/><path d="M9 7.164L6.457 9.707a1 1 0 0 1-1.414-1.414l3.25-3.25a1 1 0 0 1 1.414 0l3.25 3.25a1 1 0 1 1-1.414 1.414L9 7.164z"/></g></g></symbol><symbol id="ter-icon--enclosed-arrow-right-dark-48px" viewBox="0 0 50 50"><title>enclosed arrow right dark 48px</title><g class="nc-icon-wrapper"><g><path d="M0 25C0 11.193 11.193 0 25 0s25 11.193 25 25-11.193 25-25 25S0 38.807 0 25zm2 0c0 12.703 10.297 23 23 23s23-10.297 23-23S37.703 2 25 2 2 12.297 2 25z"/><path d="M14 26a1 1 0 0 1 0-2h22a1 1 0 0 1 0 2H14z"/><path d="M25.293 15.707a1 1 0 0 1 1.414-1.414l10 10a1 1 0 0 1 0 1.414l-10 10a1 1 0 0 1-1.414-1.414L34.586 25l-9.293-9.293z"/></g></g></symbol><symbol id="ter-icon--enclosed-arrow-right-dark-32px" viewBox="0 0 34 34"><title>enclosed arrow right dark 32px</title><g class="nc-icon-wrapper"><g><path d="M0 17C0 7.611 7.611 0 17 0s17 7.611 17 17-7.611 17-17 17S0 26.389 0 17zm2 0c0 8.284 6.716 15 15 15 8.284 0 15-6.716 15-15 0-8.284-6.716-15-15-15C8.716 2 2 8.716 2 17z"/><path d="M10 18a1 1 0 0 1 0-2h14a1 1 0 0 1 0 2H10z"/><path d="M16.793 11.207a1 1 0 1 1 1.414-1.414l6.5 6.5a1 1 0 0 1 0 1.414l-6.5 6.5a1 1 0 0 1-1.414-1.414L22.586 17l-5.793-5.793z"/></g></g></symbol><symbol id="ter-icon--enclosed-arrow-right-dark-24" viewBox="0 0 26 26"><title>enclosed arrow right dark 24</title><g class="nc-icon-wrapper"><g><path d="M0 13C0 5.82 5.82 0 13 0s13 5.82 13 13-5.82 13-13 13S0 20.18 0 13zm2 0c0 6.075 4.925 11 11 11s11-4.925 11-11S19.075 2 13 2 2 6.925 2 13z"/><path d="M7 14a1 1 0 0 1 0-2h9a1 1 0 0 1 0 2H7z"/><path d="M12.293 8.832a1 1 0 1 1 1.414-1.414l4.875 4.875a1 1 0 0 1 0 1.414l-4.875 4.875a1 1 0 0 1-1.414-1.414L16.46 13l-4.168-4.168z"/></g></g></symbol><symbol id="ter-icon--enclosed-arrow-right-dark-16px" viewBox="0 0 18 18"><title>enclosed arrow right dark 16px</title><g class="nc-icon-wrapper"><g><path d="M0 9a9 9 0 1 1 18 0A9 9 0 1 1 0 9zm2 0a7 7 0 1 0 14 0A7 7 0 0 0 2 9z"/><path d="M5 10a1 1 0 1 1 0-2h6a1 1 0 0 1 0 2H5z"/><path d="M8.293 6.457a1 1 0 0 1 1.414-1.414l3.25 3.25a1 1 0 0 1 0 1.414l-3.25 3.25a1 1 0 1 1-1.414-1.414L10.836 9 8.293 6.457z"/></g></g></symbol><symbol id="ter-icon--enclosed-arrow-left-dark-48px" viewBox="0 0 50 50"><title>enclosed arrow left dark 48px</title><g class="nc-icon-wrapper"><g><path d="M50 25c0 13.807-11.193 25-25 25S0 38.807 0 25 11.193 0 25 0s25 11.193 25 25zm-2 0C48 12.297 37.703 2 25 2S2 12.297 2 25s10.297 23 23 23 23-10.297 23-23z"/><path d="M36 24a1 1 0 0 1 0 2H14a1 1 0 0 1 0-2h22z"/><path d="M15.414 25l9.293 9.293a1 1 0 0 1-1.414 1.414l-10-10a1 1 0 0 1 0-1.414l10-10a1 1 0 0 1 1.414 1.414L15.414 25z"/></g></g></symbol><symbol id="ter-icon--enclosed-arrow-left-dark-32px" viewBox="0 0 34 34"><title>enclosed arrow left dark 32px</title><g class="nc-icon-wrapper"><g><path d="M34 17c0 9.389-7.611 17-17 17S0 26.389 0 17 7.611 0 17 0s17 7.611 17 17zm-2 0c0-8.284-6.716-15-15-15C8.716 2 2 8.716 2 17c0 8.284 6.716 15 15 15 8.284 0 15-6.716 15-15z"/><path d="M24 16a1 1 0 0 1 0 2H10a1 1 0 0 1 0-2h14z"/><path d="M17.207 22.793a1 1 0 0 1-1.414 1.414l-6.5-6.5a1 1 0 0 1 0-1.414l6.5-6.5a1 1 0 1 1 1.414 1.414L11.414 17l5.793 5.793z"/></g></g></symbol><symbol id="ter-icon--enclosed-arrow-left-dark-24px" viewBox="0 0 26 26"><title>enclosed arrow left dark 24px</title><g class="nc-icon-wrapper"><g><path d="M26 13c0 7.18-5.82 13-13 13S0 20.18 0 13 5.82 0 13 0s13 5.82 13 13zm-2 0c0-6.075-4.925-11-11-11S2 6.925 2 13s4.925 11 11 11 11-4.925 11-11z"/><path d="M19 12a1 1 0 0 1 0 2h-9a1 1 0 0 1 0-2h9z"/><path d="M13.708 17.168a1 1 0 0 1-1.414 1.414l-4.875-4.875a1 1 0 0 1 0-1.414l4.875-4.875a1 1 0 1 1 1.414 1.414L9.54 13l4.168 4.168z"/></g></g></symbol><symbol id="ter-icon--enclosed-arrow-down-dark-24px" viewBox="0 0 26 26"><title>enclosed arrow down dark 24px</title><g class="nc-icon-wrapper"><g><path d="M13 0c7.18 0 13 5.82 13 13s-5.82 13-13 13S0 20.18 0 13 5.82 0 13 0zm0 2C6.925 2 2 6.925 2 13s4.925 11 11 11 11-4.925 11-11S19.075 2 13 2z"/><path d="M12 7.75a1 1 0 0 1 2 0v10.5a1 1 0 0 1-2 0V7.75z"/><path d="M17.167 12.667a1 1 0 0 1 1.415 1.415l-4.875 4.875a1 1 0 0 1-1.415 0l-4.875-4.875a1 1 0 1 1 1.415-1.415L13 16.835l4.167-4.168z"/></g></g></symbol><symbol id="ter-icon--enclosed-arrow-down-dark-16px" viewBox="0 0 18 18"><title>enclosed arrow down dark 16px</title><g class="nc-icon-wrapper"><g><path d="M9 0a9 9 0 1 1 0 18A9 9 0 1 1 9 0zm0 2a7 7 0 1 0 0 14A7 7 0 0 0 9 2z"/><path d="M8 5a1 1 0 1 1 2 0v6a1 1 0 0 1-2 0V5z"/><path d="M11.543 8.293a1 1 0 0 1 1.414 1.414l-3.25 3.25a1 1 0 0 1-1.414 0l-3.25-3.25a1 1 0 1 1 1.414-1.414L9 10.836l2.543-2.543z"/></g></g></symbol></svg>