<svg xmlns="http://www.w3.org/2000/svg" style="display: none;"><symbol id="icon-open-caret-up-dark-8px" viewBox="0 0 10 6"><title>open caret up dark 8px</title><g class="nc-icon-wrapper"><path class="st0" d="M9 6c-.3 0-.5-.1-.7-.3L5 2.4 1.7 5.7c-.4.4-1 .4-1.4 0s-.4-1 0-1.4l4-4c.4-.4 1-.4 1.4 0l4 4c.4.4.4 1 0 1.4-.2.2-.4.3-.7.3z" style="" fill="#363545"/></g></symbol><symbol id="icon-open-caret-right-dark-8px" viewBox="0 0 6 10"><title>open caret right dark 8px</title><g class="nc-icon-wrapper"><path class="st0" d="M1 10c-.3 0-.5-.1-.7-.3-.4-.4-.4-1 0-1.4L3.6 5 .3 1.7C-.1 1.3-.1.7.3.3s1-.4 1.4 0l4 4c.4.4.4 1 0 1.4l-4 4c-.2.2-.4.3-.7.3z" style="" fill="#363545"/></g></symbol><symbol id="icon-open-caret-down-dark-8px" viewBox="0 0 10 6"><title>open caret down dark 8px</title><g class="nc-icon-wrapper"><path class="st0" d="M5 6c-.3 0-.5-.1-.7-.3l-4-4C-.1 1.3-.1.7.3.3s1-.4 1.4 0L5 3.6 8.3.3c.4-.4 1-.4 1.4 0s.4 1 0 1.4l-4 4c-.2.2-.4.3-.7.3z" style="" fill="#363545"/></g></symbol><symbol id="icon-open-caret-left-dark-8px" viewBox="0 0 6 10"><title>open caret left dark 8px</title><g class="nc-icon-wrapper"><path class="st0" d="M5 10c-.3 0-.5-.1-.7-.3l-4-4c-.4-.4-.4-1 0-1.4l4-4c.4-.4 1-.4 1.4 0s.4 1 0 1.4L2.4 5l3.3 3.3c.4.4.4 1 0 1.4-.2.2-.4.3-.7.3z" style="" fill="#363545"/></g></symbol></svg>